<svg width="49" height="48" viewBox="0 0 49 48" fill="none" xmlns="http://www.w3.org/2000/svg">
<path d="M5.6601 38.0205L5.6201 38.0605C5.0801 36.8805 4.7401 35.5405 4.6001 34.0605C4.7401 35.5205 5.1201 36.8405 5.6601 38.0205Z" fill="#02957D"/>
<path d="M18.5 20.7602C21.1289 20.7602 23.26 18.6291 23.26 16.0002C23.26 13.3714 21.1289 11.2402 18.5 11.2402C15.8711 11.2402 13.74 13.3714 13.74 16.0002C13.74 18.6291 15.8711 20.7602 18.5 20.7602Z" fill="#02957D"/>
<path d="M32.88 4H16.12C8.84 4 4.5 8.34 4.5 15.62V32.38C4.5 34.56 4.88 36.46 5.62 38.06C7.34 41.86 11.02 44 16.12 44H32.88C40.16 44 44.5 39.66 44.5 32.38V27.8V15.62C44.5 8.34 40.16 4 32.88 4ZM41.24 25C39.68 23.66 37.16 23.66 35.6 25L27.28 32.14C25.72 33.48 23.2 33.48 21.64 32.14L20.96 31.58C19.54 30.34 17.28 30.22 15.68 31.3L8.2 36.32C7.76 35.2 7.5 33.9 7.5 32.38V15.62C7.5 9.98 10.48 7 16.12 7H32.88C38.52 7 41.5 9.98 41.5 15.62V25.22L41.24 25Z" fill="#02957D"/>
</svg>
