<svg width="74" height="74" viewBox="0 0 74 74" fill="none" xmlns="http://www.w3.org/2000/svg">
<path d="M33.1459 14.3066L19.4867 7.5541C12.1176 3.9466 6.07422 7.61577 6.07422 15.6941V61.4508C6.07422 64.9658 9.00339 67.8333 12.5801 67.8333H35.4584C37.1542 67.8333 38.5417 66.4458 38.5417 64.7499V22.8474C38.5417 19.6099 36.1059 15.7558 33.1459 14.3066ZM27.6576 42.3958H16.9584C15.6942 42.3958 14.6459 41.3474 14.6459 40.0833C14.6459 38.8191 15.6942 37.7708 16.9584 37.7708H27.6576C28.9217 37.7708 29.9701 38.8191 29.9701 40.0833C29.9701 41.3474 28.9526 42.3958 27.6576 42.3958ZM27.6576 30.0624H16.9584C15.6942 30.0624 14.6459 29.0141 14.6459 27.7499C14.6459 26.4858 15.6942 25.4374 16.9584 25.4374H27.6576C28.9217 25.4374 29.9701 26.4858 29.9701 27.7499C29.9701 29.0141 28.9526 30.0624 27.6576 30.0624Z" fill="#02957D"/>
<path d="M67.8333 55.6235V60.1252C67.8333 64.3802 64.38 67.8335 60.125 67.8335H46.1575C44.4925 67.8335 43.1666 66.5077 43.1666 64.8427V58.1827C46.4658 58.5835 49.95 57.6277 52.4475 55.6235C54.5441 57.3194 57.2266 58.3369 60.1558 58.3369C63.0233 58.3369 65.7058 57.3194 67.8333 55.6235Z" fill="#02957D"/>
<path d="M67.8333 46.404V46.4348C67.5866 50.474 64.2875 53.7115 60.1558 53.7115C55.87 53.7115 52.4475 50.2273 52.4475 46.0031C52.4475 50.7206 48.1 54.5131 43.1666 53.5573V36.9998C43.1666 35.0265 44.9858 33.5465 46.9283 33.9781L52.4475 35.2115L53.9275 35.5506L60.2175 36.9689C61.7283 37.2773 63.1158 37.8015 64.3183 38.5723C64.3183 38.6031 64.3491 38.6031 64.3491 38.6031C64.6575 38.819 64.9658 39.0656 65.2433 39.3431C66.6616 40.7615 67.5866 42.8273 67.8025 45.849C67.8025 46.034 67.8333 46.219 67.8333 46.404Z" fill="#02957D"/>
</svg>
