<svg width="74" height="74" viewBox="0 0 74 74" fill="none" xmlns="http://www.w3.org/2000/svg">
<path fill-rule="evenodd" clip-rule="evenodd" d="M3.67834 19.2458V60.9388H17.6878V19.2458H3.67834ZM59.875 64.2904H55.078V65.795H59.875V64.2904ZM59.5469 51.8593H59.8042C65.3556 51.8593 69.8722 56.3759 69.8722 61.9288V71.0762H64.2702V64.2557C64.2702 63.7773 63.8814 63.3886 63.403 63.3886C62.9246 63.3886 62.5358 63.7773 62.5358 64.2557V71.0762H43.6947V64.2557C43.6947 63.7773 43.3059 63.3886 42.8275 63.3886C42.3491 63.3886 41.9603 63.7773 41.9603 64.2557V71.0762H36.3583V61.9288C36.3583 56.3759 40.8749 51.8593 46.4278 51.8593H46.6851L52.4157 59.7088C52.579 59.9314 52.8392 60.0643 53.1167 60.0643C53.3942 60.0643 53.6544 59.9314 53.8162 59.7088L59.5469 51.8593ZM54.2108 62.5561H60.7422C61.222 62.5561 61.6094 62.9448 61.6094 63.4232V66.6622C61.6094 67.1406 61.222 67.5294 60.7422 67.5294H54.2108C53.731 67.5294 53.3436 67.1406 53.3436 66.6622V63.4232C53.3436 62.9448 53.731 62.5561 54.2108 62.5561ZM57.3992 51.8593H48.8313L53.1153 57.7273L57.3992 51.8593ZM53.1153 34.4115C56.2082 34.4115 59.1596 35.7513 61.2047 38.0378C61.871 37.159 62.2207 36.1878 62.2207 35.1847C62.2207 31.7348 58.1363 28.9265 53.1153 28.9265C48.0942 28.9265 44.0098 31.7348 44.0098 35.1847C44.0098 36.1878 44.3596 37.159 45.0258 38.0378C47.0724 35.7498 50.0237 34.4115 53.1153 34.4115ZM55.3671 32.8766C55.3671 33.3564 54.9783 33.7437 54.4999 33.7437C54.0215 33.7437 53.6327 33.355 53.6327 32.8766V32.125C53.6327 31.8446 53.3956 31.6076 53.1153 31.6076C52.8349 31.6076 52.5978 31.8446 52.5978 32.125V32.8766C52.5978 33.3564 52.209 33.7437 51.7306 33.7437C51.2508 33.7437 50.8635 33.355 50.8635 32.8766V32.125C50.8635 30.8835 51.8737 29.8732 53.1153 29.8732C54.3568 29.8732 55.3671 30.8835 55.3671 32.125V32.8766ZM45.9566 39.6305C47.678 37.4438 50.3273 36.1444 53.1167 36.1444C55.9047 36.1444 58.5554 37.4423 60.2753 39.6305C59.8389 43.2062 56.7546 45.9639 53.1167 45.9639C49.4789 45.9639 46.3931 43.2062 45.9566 39.6305ZM24.2003 60.9402V41.5773C24.2003 41.0975 24.5891 40.7102 25.0675 40.7102H38.0493C38.5277 40.7102 38.9165 41.0989 38.9165 41.5773V52.8305C40.2852 51.6989 41.9126 50.8721 43.6947 50.4487V39.1521C42.7654 37.9554 42.2769 36.604 42.2769 35.1862C42.2769 33.764 42.7712 32.4068 43.6947 31.2145V4.88086H19.4221V60.9402H24.2003ZM33.6238 36.6618V31.3156C33.6238 30.8358 34.0126 30.4484 34.491 30.4484H39.8372C40.317 30.4484 40.7044 30.8358 40.7044 31.3156V36.6618C40.7044 37.1402 40.3156 37.529 39.8372 37.529H34.491C34.0126 37.5276 33.6238 37.1402 33.6238 36.6618ZM28.6259 37.5276H23.2797C22.7998 37.5276 22.4125 37.1388 22.4125 36.6604V31.3142C22.4125 30.8343 22.7998 30.447 23.2797 30.447H28.6259C29.1043 30.447 29.4931 30.8343 29.4931 31.3142V36.6604C29.4931 37.1402 29.1043 37.5276 28.6259 37.5276ZM34.491 26.3351C34.0126 26.3351 33.6238 25.9477 33.6238 25.4679V20.1217C33.6238 19.6418 34.0126 19.2545 34.491 19.2545H39.8372C40.317 19.2545 40.7044 19.6433 40.7044 20.1217V25.4679C40.7044 25.9477 40.3156 26.3351 39.8372 26.3351H34.491ZM28.6259 26.3351H23.2797C22.7998 26.3351 22.4125 25.9477 22.4125 25.4679V20.1217C22.4125 19.6418 22.7998 19.2545 23.2797 19.2545H28.6259C29.1043 19.2545 29.4931 19.6433 29.4931 20.1217V25.4679C29.4931 25.9477 29.1043 26.3351 28.6259 26.3351ZM39.8372 15.1411H34.491C34.0126 15.1411 33.6238 14.7523 33.6238 14.2739V8.92773C33.6238 8.44934 34.0126 8.06055 34.491 8.06055H39.8372C40.317 8.06055 40.7044 8.44934 40.7044 8.92773V14.2739C40.7044 14.7538 40.317 15.1411 39.8372 15.1411ZM28.6259 15.1411H23.2797C22.7998 15.1411 22.4125 14.7523 22.4125 14.2739V8.92773C22.4125 8.44934 22.7998 8.06055 23.2797 8.06055H28.6259C29.1043 8.06055 29.4931 8.44934 29.4931 8.92773V14.2739C29.4931 14.7538 29.1043 15.1411 28.6259 15.1411ZM25.9347 42.4431V60.9388H34.6687C34.8667 58.5569 35.7744 56.3745 37.1807 54.6025V42.4416H25.9347V42.4431ZM12.489 49.4803V53.0921H8.87713V49.4803H12.489ZM35.3582 32.1814H38.97V35.7932H35.3582V32.1814ZM27.7587 32.1814V35.7932H24.1469V32.1814H27.7587ZM27.7587 24.6007H24.1469V20.9889H27.7587V24.6007ZM38.97 20.9889V24.6007H35.3582V20.9889H38.97ZM35.3582 9.79492H38.97V13.4068H35.3582V9.79492ZM24.1469 13.4068V9.79492H27.7587V13.4068H24.1469ZM8.87713 38.2864H12.489V41.8982H8.87713V38.2864ZM8.87713 27.0939H12.489V30.7057H8.87713V27.0939ZM8.00995 25.3595H13.3562C13.836 25.3595 14.2233 25.7483 14.2233 26.2267V31.5729C14.2233 32.0527 13.8346 32.4401 13.3562 32.4401H8.00995C7.53155 32.4401 7.14276 32.0527 7.14276 31.5729V26.2267C7.14276 25.7483 7.53155 25.3595 8.00995 25.3595ZM8.00995 36.552H13.3562C13.836 36.552 14.2233 36.9408 14.2233 37.4192V42.7668C14.2233 43.2452 13.8346 43.634 13.3562 43.634H8.00995C7.53155 43.634 7.14276 43.2452 7.14276 42.7668V37.4192C7.14276 36.9408 7.53155 36.552 8.00995 36.552ZM8.00995 47.7459H13.3562C13.836 47.7459 14.2233 48.1347 14.2233 48.6131V53.9593C14.2233 54.4392 13.8346 54.8265 13.3562 54.8265H8.00995C7.53155 54.8265 7.14276 54.4392 7.14276 53.9593V48.6131C7.14276 48.1347 7.53155 47.7459 8.00995 47.7459Z" fill="#02957D"/>
</svg>
